<?xml version="1.0" encoding="utf-8"?>
<!-- Generator: Adobe Illustrator 27.5.0, SVG Export Plug-In . SVG Version: 6.00 Build 0)  -->
<svg version="1.1" id="Layer_1" xmlns="http://www.w3.org/2000/svg" xmlns:xlink="http://www.w3.org/1999/xlink" x="0px" y="0px"
	 viewBox="0 0 300 79.8" style="enable-background:new 0 0 300 79.8;" xml:space="preserve">
<style type="text/css">
	.st0{fill:url(#SVGID_1_);}
	.st1{fill:#7E9AC3;}
	.st2{fill:#4D6D9F;}
	.st3{fill:url(#SVGID_00000101100213406495256070000011507998484630243518_);}
	.st4{fill:url(#SVGID_00000150094682901924781660000002690240949798125204_);}
	.st5{fill:#101C27;}
</style>
<linearGradient id="SVGID_1_" gradientUnits="userSpaceOnUse" x1="-69.6233" y1="449.6875" x2="-69.1089" y2="449.175" gradientTransform="matrix(75.1781 0 0 -75.0316 5235.3267 33761.418)">
	<stop  offset="0" style="stop-color:#001D4C"/>
	<stop  offset="4.000000e-02" style="stop-color:#002151"/>
	<stop  offset="0.1" style="stop-color:#002A5D"/>
	<stop  offset="0.18" style="stop-color:#00376F"/>
	<stop  offset="0.26" style="stop-color:#00488A"/>
	<stop  offset="0.28" style="stop-color:#004B8D"/>
	<stop  offset="0.52" style="stop-color:#0088CB"/>
	<stop  offset="0.73" style="stop-color:#004B8D"/>
	<stop  offset="0.77" style="stop-color:#004280"/>
	<stop  offset="0.84" style="stop-color:#00336A"/>
	<stop  offset="0.9" style="stop-color:#00285A"/>
	<stop  offset="0.96" style="stop-color:#002050"/>
	<stop  offset="1" style="stop-color:#001D4C"/>
</linearGradient>
<path class="st0" d="M1.2,20.6h38.7v38.6H1.2V20.6z"/>
<path class="st1" d="M0,19.4l1.3,1.3h38.4l1.3-1.3H0z M1.3,59.1L0,60.4h41L39.7,59L1.3,59.1z"/>
<path class="st2" d="M0,60.4L1.2,59V20.8L0,19.4V60.4z"/>
<linearGradient id="SVGID_00000091002891797271133910000014927897207975980967_" gradientUnits="userSpaceOnUse" x1="-69.6381" y1="449.9525" x2="-69.1237" y2="449.9525" gradientTransform="matrix(75.1781 0 0 -84.1263 5237.605 37890.4336)">
	<stop  offset="0" style="stop-color:#C9CACC"/>
	<stop  offset="0.23" style="stop-color:#EDEDEE"/>
	<stop  offset="0.37" style="stop-color:#DEDFE0"/>
	<stop  offset="0.43" style="stop-color:#E2E3E4"/>
	<stop  offset="0.49" style="stop-color:#A5A7AA"/>
	<stop  offset="0.56" style="stop-color:#FFFFFF"/>
	<stop  offset="0.62" style="stop-color:#DEDFE0"/>
	<stop  offset="0.7" style="stop-color:#EDEDEE"/>
	<stop  offset="0.77" style="stop-color:#F8F8F9"/>
	<stop  offset="1" style="stop-color:#D1D3D4"/>
</linearGradient>
<path style="fill:url(#SVGID_00000091002891797271133910000014927897207975980967_);" d="M22.1,23.6c-2,0.7-3.2,1.9-3.8,3.2
	c-0.2,0.5-0.3,1-0.3,1.6v3.3c0,0.3-0.2,0.6-0.5,0.7c-0.2,0.1-0.3,0.2-0.5,0.2l-0.5,0.2L2.3,38.5v20.8h9.5v-2l7-2.8l0.5-0.2
	c0.5-0.2,0.9-0.5,1.3-0.8c1-0.7,2.3-1.9,2.3-3.9v-3.4l18.2-7.6V16L22.1,23.6z"/>
<linearGradient id="SVGID_00000037688514481215960170000008725599113878005182_" gradientUnits="userSpaceOnUse" x1="-69.5799" y1="449.5728" x2="-69.0649" y2="449.5728" gradientTransform="matrix(72.9 0 0 -77.3053 5073.5781 34793.6758)">
	<stop  offset="0" style="stop-color:#9E012D"/>
	<stop  offset="0.18" style="stop-color:#D11242"/>
	<stop  offset="0.37" style="stop-color:#D11242"/>
	<stop  offset="0.43" style="stop-color:#D11242"/>
	<stop  offset="0.49" style="stop-color:#8B0025"/>
	<stop  offset="0.56" style="stop-color:#EE3352"/>
	<stop  offset="0.63" style="stop-color:#C40E3D"/>
	<stop  offset="0.88" style="stop-color:#D11242"/>
	<stop  offset="0.98" style="stop-color:#C40E3D"/>
	<stop  offset="1" style="stop-color:#C40E3D"/>
</linearGradient>
<path style="fill:url(#SVGID_00000037688514481215960170000008725599113878005182_);" d="M8.5,45.1c3.4-1.3,6.7-2.5,10.1-4
	c0.4-0.2,0.8-0.5,1.1-1v2.9c-0.1,0.8-0.7,1.6-1.5,1.9c-3.1,1.4-6.4,2.5-9.7,3.7L8.5,45.1z M22.7,25.8c-1.9,0.7-2.6,1.6-2.6,3V32
	c0,2.1-3.1,3-3.1,3L1.2,41v18.2h7.2v-3.7l8.6-3.4c0,0,2.6-0.9,2.6-2.9c0,0,0-1.9,0.1-3.2c0.1-1.1,0.7-2,2.1-2.6l16.9-6.7v-6.7
	l-16.3,6.4c-2,0.8-2.4,1.7-2.4,1.7v-3c0-0.2-0.1-1.4,2.8-2.5l15.9-6.2v-6.9L22.7,25.8z"/>
<path class="st2" d="M39.8,38.7v20.4l1.2,1.3V38.2L39.8,38.7z"/>
<path class="st5" d="M66.6,34.9c-0.2-1-0.6-2-1.2-2.9c-0.7-0.8-1.5-1.1-3.7-1.1h-2c-1.1,0-1.3,0.1-1.3,1.2v7.7h3.1
	c3.1,0,3.3-0.3,3.7-2.5h1.1V44h-1.1c-0.4-2.3-0.7-2.6-3.7-2.6h-3.1V47c0,3.1,0.3,3.3,3.3,3.5v1.1H51.5v-1.1c2.6-0.2,2.9-0.4,2.9-3.5
	V34.1c0-3.1-0.3-3.2-2.8-3.4v-1.1h15.7c0.1,0.8,0.2,3.2,0.4,5.1L66.6,34.9z M68.9,51.7v-1c2-0.2,2.2-0.4,2.2-2.8V41
	c0-2.2-0.2-2.3-2-2.6v-1c1.9-0.2,3.8-0.7,5.7-1.3v11.6c0,2.3,0.2,2.5,2.3,2.8v1L68.9,51.7z M70.6,31.6c0-1.2,1-2.2,2.2-2.2
	c1.2,0,2.2,1,2.2,2.2s-1,2.2-2.2,2.2C71.6,33.8,70.6,32.8,70.6,31.6 M84.5,39.8c1.2-2,2.6-3.7,4-3.7c0.5-0.1,1.1,0.2,1.5,0.5
	s0.7,0.9,0.7,1.4c0,1-0.6,1.8-1.4,2.2c-0.3,0.2-0.7,0.1-1-0.1c-0.4-0.4-1-0.7-1.6-0.7c-0.7,0-1.6,0.7-2.2,2.2V48
	c0,2.2,0.2,2.3,2.8,2.5v1h-8.8v-1c1.9-0.2,2.2-0.4,2.2-2.5v-7.2c0-1.9-0.2-2-1.9-2.4v-0.9c1.9-0.3,3.8-0.7,5.7-1.3L84.5,39.8z
	 M100.4,40.9c-0.8-2.1-1.9-3.4-3.5-3.4c-0.5,0-1,0.2-1.4,0.6C95.2,38.5,95,39,95,39.5c0,1.2,1,2,2.6,2.7c2.7,1.2,4.5,2.3,4.5,4.9
	c0,3.2-3.1,4.9-5.9,4.9c-1.7,0-3.5-0.7-4.1-1.2c-0.4-1.4-0.5-2.9-0.5-4.4l1-0.1c0.7,2.2,2.3,4.4,4.3,4.4c0.5,0,1.1-0.2,1.5-0.5
	c0.4-0.4,0.6-0.9,0.6-1.4c0-1.2-0.7-2-2.6-2.9c-1.7-0.8-4.3-2.1-4.3-4.9c0-2.6,2.2-4.7,5.5-4.7c1.1-0.1,2.2,0.2,3.1,0.6
	c0.4,1.3,0.7,2.5,0.8,3.8C101.5,40.7,100.4,40.9,100.4,40.9L100.4,40.9z M110.5,51.7c-0.4,0.2-0.9,0.4-1.4,0.4
	c-2.5,0-3.8-1.3-3.8-4.2v-9.7h-2.2l-0.2-0.4l1-1.1h1.4v-2.5l3.2-2.5l0.4,0.2v4.9h3.5c0.2,0.2,0.3,0.5,0.2,0.8s-0.2,0.5-0.4,0.7H109
	v8.5c0,2.7,1.2,3.1,2,3.1c0.6,0,1.3-0.2,1.8-0.4l0.3,1.1L110.5,51.7z M136.9,45.9c-0.5,1.9-1.1,3.7-1.9,5.4
	c-2.1,0.5-4.2,0.8-6.4,0.9c-8.8,0-12.6-5.9-12.6-11.3c0-7.1,5.4-11.9,13.4-11.9c2.1,0.1,4.1,0.4,6.1,0.9c0.2,1.9,0.5,3.4,0.7,5.5
	l-1.2,0.2c-1-3.9-3.5-5.2-6.4-5.2c-5.2,0-8,4.7-8,9.8c0.1,6.2,3.5,10.4,8.4,10.4c3.1,0,5-1.8,6.8-5.2L136.9,45.9z M137.8,51.7v-1
	c2-0.2,2.2-0.4,2.2-2.8V41c0-2.2-0.2-2.3-2-2.6v-1c1.9-0.2,3.8-0.7,5.7-1.3v11.6c0,2.3,0.2,2.5,2.3,2.8v1L137.8,51.7z M139.5,31.6
	c0-1.2,1-2.2,2.2-2.2s2.2,1,2.2,2.2s-1,2.2-2.2,2.2C140.5,33.8,139.6,32.8,139.5,31.6 M153.8,51.7c-0.4,0.2-0.9,0.4-1.4,0.4
	c-2.5,0-3.8-1.3-3.8-4.2v-9.7h-2.2l-0.2-0.4l1-1.1h1.4v-2.5l3.2-2.5l0.4,0.2v4.9h3.5c0.2,0.2,0.3,0.5,0.2,0.8
	c-0.1,0.3-0.2,0.5-0.4,0.7h-3.4v8.5c0,2.7,1.2,3.1,2,3.1c0.7,0,1.3-0.2,1.9-0.4l0.3,1.1L153.8,51.7z M157.6,51.7v-1
	c2-0.2,2.2-0.4,2.2-2.8V41c0-2.2-0.2-2.3-2-2.6v-1c1.9-0.2,3.8-0.7,5.7-1.3v11.6c0,2.3,0.2,2.5,2.3,2.8v1L157.6,51.7z M159.4,31.6
	c0-1.2,1-2.2,2.2-2.2c1.2,0,2.2,1,2.2,2.2s-1,2.2-2.2,2.2C160.3,33.8,159.4,32.8,159.4,31.6 M180.8,47.1c-0.6,1.7-1.1,3.4-1.6,4.6
	h-11.8l-0.4-0.5c2.9-4.4,5.3-8.6,8-13.1h-2.2c-2.3,0-3.1,0.5-4,2.4l-0.5,1.1l-1-0.4c0.4-1.6,1-3.7,1.3-5.2h0.7
	c0.2,0.5,0.7,0.7,2,0.7h8.2l0.2,0.4c-2.6,4.5-5.1,8.6-7.8,13.2h2.6c2.5,0,3.5-0.5,4.7-2.8l0.5-0.9L180.8,47.1L180.8,47.1z
	 M194.7,48.5c-2.1,2.9-4.6,3.6-5.9,3.6c-4.4,0-6.9-3.4-6.9-7.3c0-2.3,0.8-4.4,2.4-6.1c1.3-1.4,3.2-2.3,5.1-2.5
	c2.9,0.1,5.3,2.4,5.4,5.3c0,0.7-0.2,1.1-0.9,1.2c-0.6,0.1-4.8,0.4-8.3,0.5c0.1,4,2.3,5.9,4.7,5.9c1.4,0,2.8-0.5,3.8-1.6L194.7,48.5z
	 M185.8,41.8c1.6,0,3.1-0.1,4.6-0.1c0.5,0,0.7-0.1,0.8-0.7c0-1.7-0.9-3.5-2.4-3.5C187.3,37.6,186.1,39.1,185.8,41.8 M205.3,51.7v-1
	c1.7-0.2,1.9-0.4,1.9-2.8v-5.7c0-2.4-1.1-3.4-2.6-3.4c-1.1,0-2,0.5-3,1.3v8.2c0,2.2,0.2,2.3,1.8,2.5v1h-7.9v-1
	c2.2-0.2,2.3-0.4,2.3-2.6v-7c0-2.2-0.2-2.2-1.9-2.6v-0.9c1.9-0.2,3.8-0.7,5.6-1.3v2.6c0.7-0.5,1.3-1,2.2-1.5c0.8-0.6,1.7-0.9,2.7-1
	c2.7,0,4.4,2,4.4,5.3v6.5c0,2.2,0.2,2.3,2.1,2.6v1L205.3,51.7z M223.2,40.9c-0.8-2.1-1.9-3.4-3.5-3.4c-0.5,0-1,0.2-1.4,0.6
	s-0.5,0.9-0.5,1.4c0,1.2,1,2,2.6,2.7c2.6,1.2,4.5,2.3,4.5,4.9c0,3.2-3.1,4.9-5.9,4.9c-1.7,0-3.5-0.7-4.1-1.2
	c-0.4-1.4-0.5-2.9-0.5-4.4l1-0.1c0.7,2.2,2.3,4.4,4.3,4.4c0.5,0,1.1-0.2,1.5-0.5c0.4-0.4,0.6-0.9,0.6-1.4c0-1.2-0.7-2-2.6-2.9
	c-1.7-0.8-4.3-2.1-4.3-4.9c0-2.6,2.2-4.7,5.5-4.7c1.1-0.1,2.2,0.2,3.1,0.6c0.4,1.3,0.7,2.5,0.8,3.8L223.2,40.9z M240.4,39.8
	c3.7,0.5,6.4,2,6.4,5.3c0,2.2-1.3,4.2-3.2,5.1c-1.7,1-4.2,1.4-7,1.4h-8.3v-1.1c2.7-0.2,3-0.4,3-3.3V34c0-2.9-0.2-3.1-2.8-3.3v-1.1
	h9.5c2.6,0,4.2,0.4,5.5,1.2s2,2.3,2,3.8c0,3.2-2.8,4.6-5,5.1v0.1H240.4z M236.3,39.3c3.5,0,5-1.4,5-4.1c0-2.8-1.7-4.3-4-4.3
	c-0.6-0.1-1.1,0.1-1.7,0.4c-0.2,0.2-0.4,0.7-0.4,1.6v6.5L236.3,39.3z M235.2,47.2c0,2.5,0.7,3.2,2.6,3.2c2.2-0.1,4.5-1.4,4.5-4.9
	c0-3.2-2.2-4.9-6.1-4.9h-1.1V47.2z M259.3,52.1c-0.7,0-1.4-0.2-1.9-0.7c-0.4-0.4-0.7-0.8-0.8-1.4c-1.3,0.9-2.9,2-3.7,2
	c-1.1,0-2.3-0.4-3.1-1.3c-0.8-0.8-1.3-1.9-1.3-3.1c0-1.7,0.8-2.6,2.6-3.3c2-0.7,4.6-1.6,5.4-2.2v-0.8c0-2.2-1-3.5-2.4-3.5
	c-0.5,0-1,0.2-1.3,0.7c-0.5,0.7-0.8,1.5-1,2.3c-0.1,0.7-0.7,1.1-1.3,1c-0.8,0-1.9-0.7-1.9-1.7c0-0.5,0.4-1,1.2-1.5
	c1.6-1.1,3.5-1.9,5.5-2.4c1.1-0.1,2.2,0.3,3.1,1c1.4,1.1,1.7,2.5,1.7,4.4v5.9c0,1.6,0.5,2,1.1,2c0.4,0,0.8-0.1,1.2-0.3l0.4,1
	L259.3,52.1z M256.5,43.5l-2.3,1.2c-1.2,0.5-1.7,1.2-1.7,2.4c0,1.8,1.3,2.6,2.2,2.6c0.7-0.1,1.4-0.4,1.9-0.8L256.5,43.5z
	 M273.7,51.7v-1c1.7-0.2,1.9-0.4,1.9-2.8v-5.7c0-2.4-1.1-3.4-2.6-3.4c-1.1,0-2,0.5-3,1.3v8.2c0,2.2,0.2,2.3,1.8,2.5v1h-7.9v-1
	c2.2-0.2,2.3-0.4,2.3-2.6v-7c0-2.2-0.2-2.2-1.9-2.6v-0.9c1.9-0.2,3.8-0.7,5.6-1.3v2.6c0.7-0.5,1.3-1,2.2-1.5c0.8-0.6,1.7-1,2.7-1
	c2.7,0,4.4,2,4.4,5.3v6.5c0,2.2,0.2,2.3,2.1,2.6v1L273.7,51.7z M294.5,51.8c-1.2-1.4-3.2-4.4-4.9-6.7c-0.4-0.5-0.7-0.7-0.9-0.7
	c-0.1,0-0.2,0-0.3,0.1v3.7c0,2.2,0.2,2.3,2.3,2.6v1h-8.3v-1c2.2-0.2,2.3-0.4,2.3-2.6v-16c0-2-0.2-2.2-2.2-2.4v-0.9
	c2-0.2,3.9-0.7,5.8-1.2v15.8c0.8-0.2,1.5-0.7,2-1.3c0.8-1,1.5-1.9,2.2-3c0.5-0.8,0.4-1.2-1.1-1.4v-1l7.2-0.2v1
	c-2.2,0.4-3.2,0.8-4.3,1.9c-0.9,0.9-1.8,1.9-2.6,2.9c0.8,1.3,4,5.3,5,6.6c1.1,1.3,1.9,1.6,3.1,1.7v1L294.5,51.8z"/>
</svg>
